<?xml version="1.0" standalone="no"?>
<!DOCTYPE svg PUBLIC "-//W3C//DTD SVG 20010904//EN"
 "http://www.w3.org/TR/2001/REC-SVG-20010904/DTD/svg10.dtd">
<svg version="1.0" xmlns="http://www.w3.org/2000/svg"
 width="619.000000pt" height="656.000000pt" viewBox="0 0 619.000000 656.000000"
 preserveAspectRatio="xMidYMid meet">
<metadata>
Created by potrace 1.15, written by Peter Selinger 2001-2017
</metadata>
<g transform="translate(0.000000,656.000000) scale(0.100000,-0.100000)"
fill="#000000" stroke="none">
<path d="M2760 6549 c-766 -83 -1447 -412 -1960 -945 -422 -439 -678 -955
-777 -1569 -26 -158 -26 -642 0 -800 99 -614 355 -1130 777 -1569 547 -569
1320 -919 2103 -953 l147 -6 0 -194 0 -193 -90 0 -90 0 0 -45 0 -45 90 0 90 0
0 -95 0 -95 45 0 45 0 0 95 0 95 110 0 110 0 0 45 0 45 -110 0 -110 0 0 193 0
194 148 6 c962 42 1891 558 2421 1347 243 362 386 729 458 1175 26 158 26 642
0 800 -72 446 -215 813 -458 1175 -430 640 -1114 1100 -1894 1275 -249 56
-358 67 -675 70 -162 2 -333 -1 -380 -6z m765 -83 c489 -69 910 -228 1320
-501 134 -89 336 -249 341 -270 3 -11 -2080 -1981 -2090 -1978 -4 1 -449 420
-989 931 -540 510 -1011 955 -1046 988 l-65 61 88 74 c505 428 1181 690 1851
717 199 9 433 0 590 -22z m-1536 -1848 l1061 -1003 0 -1417 0 -1418 -87 0
c-119 0 -328 25 -503 60 -798 160 -1506 631 -1943 1295 -224 341 -381 768
-432 1176 -20 162 -20 486 0 648 62 502 275 1004 592 1396 93 115 231 265 243
265 5 0 486 -451 1069 -1002z m3366 920 c418 -448 677 -995 750 -1579 20 -162
20 -486 0 -648 -51 -408 -208 -835 -432 -1176 -345 -523 -864 -934 -1463
-1158 -310 -116 -715 -197 -982 -197 l-88 0 0 1415 0 1414 1063 1005 c584 553
1065 1006 1069 1006 3 0 41 -37 83 -82z"/>
<path d="M2440 5628 c0 -33 3 -38 24 -38 13 0 33 -8 45 -17 20 -17 94 -211
201 -525 l33 -98 84 0 c60 0 83 3 83 13 0 25 114 317 121 310 9 -11 99 -288
99 -307 0 -13 15 -16 85 -16 55 0 85 4 85 11 0 12 181 500 211 569 22 49 33
60 67 60 19 0 22 5 22 38 l0 37 -150 0 -150 0 0 -37 c0 -31 4 -38 19 -38 35 0
51 -12 51 -39 0 -25 -99 -335 -105 -329 -2 2 -26 79 -55 171 -56 180 -56 193
-2 199 23 3 27 8 30 38 l3 35 -186 0 -185 0 0 -37 c0 -33 3 -38 24 -38 29 0
41 -14 61 -71 l16 -44 -47 -128 c-26 -70 -50 -124 -54 -120 -11 12 -110 315
-110 335 0 11 12 20 33 26 28 7 32 12 32 42 l0 33 -193 1 -192 1 0 -37z"/>
<path d="M1230 3048 c0 -35 2 -38 29 -38 54 0 56 -11 56 -277 l0 -245 -24 -19
c-13 -10 -34 -19 -47 -19 -21 0 -24 -5 -24 -35 l0 -35 318 0 317 0 22 88 c12
48 25 96 28 108 6 18 1 23 -34 32 l-41 10 -26 -49 c-36 -65 -68 -79 -184 -79
l-91 0 3 246 c3 230 4 247 22 260 11 8 30 14 43 14 20 0 23 5 23 38 l0 37
-195 0 -195 0 0 -37z"/>
<path d="M4200 3048 c0 -35 2 -38 29 -38 52 0 56 -14 61 -249 6 -237 12 -262
77 -322 119 -112 402 -111 521 1 62 59 72 97 81 320 9 206 20 250 66 250 22 0
25 4 25 38 l0 37 -155 0 -156 0 3 -35 c3 -30 7 -35 36 -41 19 -4 39 -12 45
-18 8 -9 12 -69 11 -195 0 -163 -2 -187 -20 -221 -55 -105 -213 -113 -286 -14
-26 36 -38 116 -38 263 0 156 8 180 63 184 35 3 37 5 37 40 l0 37 -200 0 -200
0 0 -37z"/>
</g>
</svg>
